<?xml version="1.0" standalone="no"?>
<!DOCTYPE svg PUBLIC "-//W3C//DTD SVG 20010904//EN"
 "http://www.w3.org/TR/2001/REC-SVG-20010904/DTD/svg10.dtd">
<svg version="1.0" xmlns="http://www.w3.org/2000/svg"
 width="130.000000pt" height="130.000000pt" viewBox="0 0 130.000000 130.000000"
 preserveAspectRatio="xMidYMid meet">

<g transform="translate(0.000000,130.000000) scale(0.100000,-0.100000)"
fill="#000000" stroke="none">
<path d="M545 1244 c-252 -44 -447 -243 -490 -501 -15 -84 -15 -102 0 -185 44
-265 238 -459 503 -503 83 -15 101 -15 185 0 197 33 360 152 445 326 118 240
75 506 -113 695 -91 91 -199 147 -329 169 -103 17 -97 17 -201 -1z m295 -515
c0 -148 -4 -246 -12 -271 -34 -115 -208 -156 -308 -72 -33 28 -60 103 -60 166
l0 38 65 0 65 0 0 -50 c0 -75 46 -112 96 -76 18 13 19 30 22 255 l3 241 65 0
64 0 0 -231z"/>
</g>
</svg>
